<?xml version="1.0" standalone="no"?>
<!DOCTYPE svg PUBLIC "-//W3C//DTD SVG 1.1//EN" "http://www.w3.org/Graphics/SVG/1.1/DTD/svg11.dtd"><svg t="1616551936519"
  class="icon" viewBox="0 0 1024 1024" version="1.1" xmlns="http://www.w3.org/2000/svg" p-id="3266"
  xmlns:xlink="http://www.w3.org/1999/xlink" width="256" height="256">
  <defs>
    <style type="text/css">
      path {
        fill: #fff;
      }
    </style>
  </defs>

  <path
    d="M235.52 325.12c3.84 2.56 8.96 3.84 14.08 3.84 8.96 0 16.64-3.84 21.76-11.52 15.36-24.32 34.56-46.08 55.04-65.28 70.4-64 165.12-92.16 258.56-76.8 53.76 8.96 102.4 30.72 144.64 62.72l-80.64 15.36c-14.08 2.56-23.04 15.36-20.48 29.44 2.56 12.8 12.8 20.48 25.6 20.48h5.12l143.36-26.88c14.08-2.56 23.04-15.36 20.48-29.44L794.88 102.4c-2.56-14.08-15.36-23.04-29.44-20.48-14.08 2.56-23.04 15.36-20.48 29.44l15.36 84.48c-48.64-38.4-106.24-62.72-167.68-72.96-108.8-17.92-218.88 15.36-300.8 89.6-25.6 23.04-46.08 48.64-64 76.8-8.96 11.52-5.12 28.16 7.68 35.84z"
    p-id="3268"></path>
</svg>
